<svg width="0" height="0" class="hidden">
  <symbol xmlns="http://www.w3.org/2000/svg" fill="none" viewBox="0 0 139 27" id="as-deatured-in-logo4">
    <path d="M12.0556 26.5597C10.3556 26.5597 9.31291 25.8004 8.92758 24.2817C8.22491 24.5537 7.39758 24.6897 6.44558 24.6897C4.60958 24.6897 3.20425 24.1684 2.22958 23.1257C1.25491 22.0831 0.767578 20.6097 0.767578 18.7057V6.19372C0.767578 4.28972 1.25491 2.81638 2.22958 1.77372C3.20425 0.73105 4.60958 0.209717 6.44558 0.209717C8.28158 0.209717 9.68691 0.73105 10.6616 1.77372C11.6362 2.81638 12.1236 4.28972 12.1236 6.19372V18.7057C12.1236 20.2924 11.7722 21.5957 11.0696 22.6157C11.2056 22.8424 11.3756 22.9897 11.5796 23.0577C11.7836 23.1257 12.0782 23.1597 12.4636 23.1597H13.0416V26.5597H12.0556ZM6.44558 21.2897C7.73758 21.2897 8.38358 20.5077 8.38358 18.9437V5.95572C8.38358 4.39172 7.73758 3.60972 6.44558 3.60972C5.15358 3.60972 4.50758 4.39172 4.50758 5.95572V18.9437C4.50758 20.5077 5.15358 21.2897 6.44558 21.2897Z" fill="#727272"></path>
    <path d="M20.0929 24.6897C18.2795 24.6897 16.8969 24.1797 15.9449 23.1597C14.9929 22.1171 14.5169 20.6324 14.5169 18.7057V0.549716H18.2569V18.9777C18.2569 19.7937 18.4155 20.3831 18.7329 20.7457C19.0729 21.1084 19.5489 21.2897 20.1609 21.2897C20.7729 21.2897 21.2375 21.1084 21.5549 20.7457C21.8949 20.3831 22.0649 19.7937 22.0649 18.9777V0.549716H25.6689V18.7057C25.6689 20.6324 25.1929 22.1171 24.2409 23.1597C23.2889 24.1797 21.9062 24.6897 20.0929 24.6897Z" fill="#727272"></path>
    <path d="M28.3325 0.549716H38.5325V3.94972H32.0725V10.2397H37.2065V13.6397H32.0725V20.9497H38.5325V24.3497H28.3325V0.549716Z" fill="#727272"></path>
    <path d="M40.6841 0.549716H50.8841V3.94972H44.4241V10.2397H49.5581V13.6397H44.4241V20.9497H50.8841V24.3497H40.6841V0.549716Z" fill="#727272"></path>
    <path d="M53.0357 0.549716H57.7277L61.3657 14.7957H61.4337V0.549716H64.7657V24.3497H60.9237L56.4357 6.97572H56.3677V24.3497H53.0357V0.549716Z" fill="#727272"></path>
    <path d="M76.9007 24.6897C75.5407 24.6897 74.5094 24.2251 73.8067 23.2957C73.1041 22.3664 72.7527 21.0177 72.7527 19.2497V16.7677C72.7527 15.5211 72.9681 14.4784 73.3988 13.6397C73.8294 12.8011 74.5321 12.189 75.5068 11.8037V11.7357C74.6228 11.3731 73.9654 10.795 73.5348 10.0017C73.1268 9.18572 72.9227 8.14305 72.9227 6.87372V6.43172C72.9227 4.50505 73.3874 3.04305 74.3167 2.04572C75.2461 1.04838 76.6401 0.549716 78.4987 0.549716H82.7828V3.94972H78.5667C77.9547 3.94972 77.4787 4.13105 77.1387 4.49372C76.8214 4.85638 76.6628 5.44572 76.6628 6.26172V7.72372C76.6628 8.63038 76.8441 9.27638 77.2067 9.66172C77.5921 10.0471 78.1587 10.2397 78.9067 10.2397H80.3688V7.58772H84.0407V10.2397H85.0947V13.6397H84.0407V21.4597C84.0407 22.1397 84.0634 22.6951 84.1087 23.1257C84.1541 23.5337 84.2674 23.9417 84.4487 24.3497H80.7087C80.5274 23.8511 80.4141 23.2277 80.3688 22.4797H80.3008C79.8928 23.2277 79.4167 23.7831 78.8727 24.1457C78.3514 24.5084 77.6941 24.6897 76.9007 24.6897ZM78.2947 21.2897C79.4734 21.2897 80.1648 20.5757 80.3688 19.1477V13.6397H78.9408C78.0794 13.6397 77.4561 13.8777 77.0707 14.3537C76.6854 14.8071 76.4928 15.5777 76.4928 16.6657V19.0797C76.4928 19.8731 76.6514 20.4397 76.9688 20.7797C77.2861 21.1197 77.7281 21.2897 78.2947 21.2897Z" fill="#727272"></path>
    <path d="M92.6138 0.549716H96.3538V10.5797L101.114 0.549716H104.854L100.4 9.28772L104.922 24.3497H101.012L97.8498 13.7417L96.3538 16.7677V24.3497H92.6138V0.549716Z" fill="#727272"></path>
    <path d="M106.692 0.549716H110.432V24.3497H106.692V0.549716Z" fill="#727272"></path>
    <path d="M113.233 0.549716H117.925L121.563 14.7957H121.631V0.549716H124.963V24.3497H121.121L116.633 6.97572H116.565V24.3497H113.233V0.549716Z" fill="#727272"></path>
    <path d="M133.047 24.6897C131.233 24.6897 129.851 24.1797 128.899 23.1597C127.947 22.1171 127.471 20.6324 127.471 18.7057V6.19372C127.471 4.26705 127.947 2.79372 128.899 1.77372C129.851 0.73105 131.233 0.209717 133.047 0.209717C134.86 0.209717 136.243 0.73105 137.195 1.77372C138.147 2.79372 138.623 4.26705 138.623 6.19372V8.23372H135.087V5.95572C135.087 4.39172 134.441 3.60972 133.149 3.60972C131.857 3.60972 131.211 4.39172 131.211 5.95572V18.9777C131.211 20.5191 131.857 21.2897 133.149 21.2897C134.441 21.2897 135.087 20.5191 135.087 18.9777V14.3197H133.217V10.9197H138.623V18.7057C138.623 20.6324 138.147 22.1171 137.195 23.1597C136.243 24.1797 134.86 24.6897 133.047 24.6897Z" fill="#727272"></path>
  </symbol>
  <symbol xmlns="http://www.w3.org/2000/svg" fill="none" viewBox="0 0 206 23" id="as-deatured-in-logo5">
    <path d="M19.2549 1.24219V6.97656H18.6924C18.359 5.65365 17.9893 4.70573 17.583 4.13281C17.1768 3.54948 16.6195 3.08594 15.9111 2.74219C15.5153 2.55469 14.8226 2.46094 13.833 2.46094H12.2549V18.8047C12.2549 19.888 12.3122 20.5651 12.4268 20.8359C12.5518 21.1068 12.7861 21.3464 13.1299 21.5547C13.484 21.7526 13.9632 21.8516 14.5674 21.8516H15.2705V22.4297H4.17676V21.8516H4.87988C5.49447 21.8516 5.98926 21.7422 6.36426 21.5234C6.63509 21.3776 6.84863 21.1276 7.00488 20.7734C7.11947 20.5234 7.17676 19.8672 7.17676 18.8047V2.46094H5.64551C4.21842 2.46094 3.18197 2.76302 2.53613 3.36719C1.62988 4.21094 1.05697 5.41406 0.817383 6.97656H0.223633V1.24219H19.2549Z" fill="#727272"></path>
    <path d="M27.458 1.24219V9.69531C28.2601 8.85156 28.9945 8.25781 29.6611 7.91406C30.3278 7.5599 31.0205 7.38281 31.7393 7.38281C32.6559 7.38281 33.4372 7.64323 34.083 8.16406C34.7393 8.6849 35.1715 9.29948 35.3799 10.0078C35.5986 10.7057 35.708 11.888 35.708 13.5547V19.2578C35.708 20.3724 35.8122 21.0703 36.0205 21.3516C36.2288 21.6224 36.6507 21.7943 37.2861 21.8672V22.4297H29.8799V21.8672C30.4007 21.7943 30.7913 21.5859 31.0518 21.2422C31.2393 20.9714 31.333 20.3099 31.333 19.2578V12.7422C31.333 11.5339 31.2861 10.7786 31.1924 10.4766C31.0986 10.1641 30.9372 9.92448 30.708 9.75781C30.4893 9.58073 30.2393 9.49219 29.958 9.49219C29.5413 9.49219 29.1351 9.63802 28.7393 9.92969C28.3434 10.2109 27.9163 10.7109 27.458 11.4297V19.2578C27.458 20.2995 27.5361 20.9505 27.6924 21.2109C27.8903 21.5651 28.2965 21.7839 28.9111 21.8672V22.4297H21.5049V21.8672C22.1195 21.8047 22.557 21.6068 22.8174 21.2734C22.9945 21.0443 23.083 20.3724 23.083 19.2578V4.41406C23.083 3.3099 22.9788 2.6224 22.7705 2.35156C22.5726 2.08073 22.1507 1.90365 21.5049 1.82031V1.24219H27.458Z" fill="#727272"></path>
    <path d="M51.6768 14.6016H43.6611C43.7549 16.5391 44.2705 18.0703 45.208 19.1953C45.9268 20.0599 46.7913 20.4922 47.8018 20.4922C48.4268 20.4922 48.9945 20.3203 49.5049 19.9766C50.0153 19.6224 50.5622 18.9922 51.1455 18.0859L51.6768 18.4297C50.8851 20.0443 50.0101 21.1901 49.0518 21.8672C48.0934 22.5339 46.984 22.8672 45.7236 22.8672C43.557 22.8672 41.9163 22.0339 40.8018 20.3672C39.9059 19.0234 39.458 17.3568 39.458 15.3672C39.458 12.9297 40.1143 10.9922 41.4268 9.55469C42.7497 8.10677 44.2965 7.38281 46.0674 7.38281C47.5465 7.38281 48.8278 7.99219 49.9111 9.21094C51.0049 10.4193 51.5934 12.2161 51.6768 14.6016ZM47.833 13.5547C47.833 11.8776 47.7393 10.7266 47.5518 10.1016C47.3747 9.47656 47.0934 9.0026 46.708 8.67969C46.4893 8.49219 46.1976 8.39844 45.833 8.39844C45.2913 8.39844 44.8486 8.66406 44.5049 9.19531C43.8903 10.1224 43.583 11.3932 43.583 13.0078V13.5547H47.833Z" fill="#727272"></path>
    <path d="M94.2632 1.24219V1.82031C93.8674 1.85156 93.534 1.96094 93.2632 2.14844C92.9924 2.33594 92.7528 2.6224 92.5444 3.00781C92.4819 3.13281 92.1538 3.9401 91.5601 5.42969L84.9194 22.9141H84.3101L79.0601 9.25781L73.2788 22.9141H72.7007L65.7319 5.61719C65.0236 3.8776 64.5288 2.82552 64.2476 2.46094C63.9663 2.09635 63.4924 1.88281 62.8257 1.82031V1.24219H72.0132V1.82031C71.2736 1.84115 70.7788 1.95573 70.5288 2.16406C70.2892 2.36198 70.1694 2.61198 70.1694 2.91406C70.1694 3.3099 70.4246 4.14844 70.9351 5.42969L75.0913 15.7109L78.4194 7.67969L77.5444 5.42969C77.0653 4.20052 76.6955 3.38281 76.4351 2.97656C76.1746 2.5599 75.8726 2.26302 75.5288 2.08594C75.1955 1.90885 74.7007 1.82031 74.0444 1.82031V1.24219H84.3101V1.82031C83.5913 1.83073 83.0757 1.88802 82.7632 1.99219C82.5444 2.0651 82.3726 2.1901 82.2476 2.36719C82.1226 2.53385 82.0601 2.72656 82.0601 2.94531C82.0601 3.1849 82.2944 3.91927 82.7632 5.14844L86.6226 15.1797L90.0757 6.10156C90.4403 5.16406 90.6642 4.52344 90.7476 4.17969C90.8309 3.83594 90.8726 3.51823 90.8726 3.22656C90.8726 2.79948 90.7267 2.46615 90.4351 2.22656C90.1434 1.97656 89.5861 1.84115 88.7632 1.82031V1.24219H94.2632Z" fill="#727272"></path>
    <path d="M101.591 1.24219V9.69531C102.393 8.85156 103.128 8.25781 103.794 7.91406C104.461 7.5599 105.154 7.38281 105.873 7.38281C106.789 7.38281 107.57 7.64323 108.216 8.16406C108.873 8.6849 109.305 9.29948 109.513 10.0078C109.732 10.7057 109.841 11.888 109.841 13.5547V19.2578C109.841 20.3724 109.945 21.0703 110.154 21.3516C110.362 21.6224 110.784 21.7943 111.419 21.8672V22.4297H104.013V21.8672C104.534 21.7943 104.925 21.5859 105.185 21.2422C105.373 20.9714 105.466 20.3099 105.466 19.2578V12.7422C105.466 11.5339 105.419 10.7786 105.326 10.4766C105.232 10.1641 105.07 9.92448 104.841 9.75781C104.623 9.58073 104.373 9.49219 104.091 9.49219C103.675 9.49219 103.268 9.63802 102.873 9.92969C102.477 10.2109 102.05 10.7109 101.591 11.4297V19.2578C101.591 20.2995 101.669 20.9505 101.826 21.2109C102.024 21.5651 102.43 21.7839 103.044 21.8672V22.4297H95.6382V21.8672C96.2528 21.8047 96.6903 21.6068 96.9507 21.2734C97.1278 21.0443 97.2163 20.3724 97.2163 19.2578V4.41406C97.2163 3.3099 97.1121 2.6224 96.9038 2.35156C96.7059 2.08073 96.284 1.90365 95.6382 1.82031V1.24219H101.591Z" fill="#727272"></path>
    <path d="M116.951 0.742188C117.628 0.742188 118.201 0.981771 118.669 1.46094C119.138 1.92969 119.373 2.4974 119.373 3.16406C119.373 3.83073 119.133 4.39844 118.654 4.86719C118.185 5.33594 117.617 5.57031 116.951 5.57031C116.284 5.57031 115.716 5.33594 115.248 4.86719C114.779 4.39844 114.544 3.83073 114.544 3.16406C114.544 2.4974 114.779 1.92969 115.248 1.46094C115.716 0.981771 116.284 0.742188 116.951 0.742188ZM119.138 7.82031V19.3984C119.138 20.4297 119.258 21.0911 119.498 21.3828C119.737 21.6641 120.206 21.8255 120.904 21.8672V22.4297H113.013V21.8672C113.659 21.8464 114.138 21.6589 114.451 21.3047C114.659 21.0651 114.763 20.4297 114.763 19.3984V10.8672C114.763 9.83594 114.643 9.17969 114.404 8.89844C114.164 8.60677 113.701 8.4401 113.013 8.39844V7.82031H119.138Z" fill="#727272"></path>
    <path d="M128.138 2.47656V7.82031H131.607V9.36719H128.138V18.3828C128.138 19.2266 128.175 19.7734 128.248 20.0234C128.331 20.263 128.472 20.4609 128.669 20.6172C128.867 20.763 129.05 20.8359 129.216 20.8359C129.893 20.8359 130.534 20.3203 131.138 19.2891L131.607 19.6328C130.763 21.6328 129.393 22.6328 127.498 22.6328C126.57 22.6328 125.784 22.3776 125.138 21.8672C124.503 21.3464 124.097 20.7682 123.919 20.1328C123.815 19.7786 123.763 18.8203 123.763 17.2578V9.36719H121.857V8.82031C123.169 7.89323 124.284 6.91927 125.201 5.89844C126.128 4.8776 126.935 3.73698 127.623 2.47656H128.138Z" fill="#727272"></path>
    <path d="M145.373 14.6016H137.357C137.451 16.5391 137.966 18.0703 138.904 19.1953C139.623 20.0599 140.487 20.4922 141.498 20.4922C142.123 20.4922 142.69 20.3203 143.201 19.9766C143.711 19.6224 144.258 18.9922 144.841 18.0859L145.373 18.4297C144.581 20.0443 143.706 21.1901 142.748 21.8672C141.789 22.5339 140.68 22.8672 139.419 22.8672C137.253 22.8672 135.612 22.0339 134.498 20.3672C133.602 19.0234 133.154 17.3568 133.154 15.3672C133.154 12.9297 133.81 10.9922 135.123 9.55469C136.445 8.10677 137.992 7.38281 139.763 7.38281C141.242 7.38281 142.524 7.99219 143.607 9.21094C144.701 10.4193 145.289 12.2161 145.373 14.6016ZM141.529 13.5547C141.529 11.8776 141.435 10.7266 141.248 10.1016C141.07 9.47656 140.789 9.0026 140.404 8.67969C140.185 8.49219 139.893 8.39844 139.529 8.39844C138.987 8.39844 138.544 8.66406 138.201 9.19531C137.586 10.1224 137.279 11.3932 137.279 13.0078V13.5547H141.529Z" fill="#727272"></path>
    <path d="M176.326 1.24219V1.82031C175.555 1.94531 174.867 2.35677 174.263 3.05469C173.826 3.57552 173.175 4.79948 172.31 6.72656L165.013 22.9141H164.498L157.232 6.07031C156.357 4.03906 155.768 2.84635 155.466 2.49219C155.175 2.13802 154.617 1.91406 153.794 1.82031V1.24219H163.951V1.82031H163.607C162.69 1.82031 162.065 1.9349 161.732 2.16406C161.492 2.32031 161.373 2.54948 161.373 2.85156C161.373 3.03906 161.414 3.26302 161.498 3.52344C161.581 3.77344 161.862 4.45573 162.341 5.57031L166.857 16.1172L171.044 6.72656C171.544 5.59115 171.852 4.83073 171.966 4.44531C172.081 4.0599 172.138 3.73177 172.138 3.46094C172.138 3.14844 172.055 2.8724 171.888 2.63281C171.722 2.39323 171.477 2.21094 171.154 2.08594C170.706 1.90885 170.112 1.82031 169.373 1.82031V1.24219H176.326Z" fill="#727272"></path>
    <path d="M187.185 14.6016H179.169C179.263 16.5391 179.779 18.0703 180.716 19.1953C181.435 20.0599 182.3 20.4922 183.31 20.4922C183.935 20.4922 184.503 20.3203 185.013 19.9766C185.524 19.6224 186.07 18.9922 186.654 18.0859L187.185 18.4297C186.393 20.0443 185.518 21.1901 184.56 21.8672C183.602 22.5339 182.492 22.8672 181.232 22.8672C179.065 22.8672 177.425 22.0339 176.31 20.3672C175.414 19.0234 174.966 17.3568 174.966 15.3672C174.966 12.9297 175.623 10.9922 176.935 9.55469C178.258 8.10677 179.805 7.38281 181.576 7.38281C183.055 7.38281 184.336 7.99219 185.419 9.21094C186.513 10.4193 187.102 12.2161 187.185 14.6016ZM183.341 13.5547C183.341 11.8776 183.248 10.7266 183.06 10.1016C182.883 9.47656 182.602 9.0026 182.216 8.67969C181.998 8.49219 181.706 8.39844 181.341 8.39844C180.8 8.39844 180.357 8.66406 180.013 9.19531C179.399 10.1224 179.091 11.3932 179.091 13.0078V13.5547H183.341Z" fill="#727272"></path>
    <path d="M192.544 0.742188C193.222 0.742188 193.794 0.981771 194.263 1.46094C194.732 1.92969 194.966 2.4974 194.966 3.16406C194.966 3.83073 194.727 4.39844 194.248 4.86719C193.779 5.33594 193.211 5.57031 192.544 5.57031C191.878 5.57031 191.31 5.33594 190.841 4.86719C190.373 4.39844 190.138 3.83073 190.138 3.16406C190.138 2.4974 190.373 1.92969 190.841 1.46094C191.31 0.981771 191.878 0.742188 192.544 0.742188ZM194.732 7.82031V19.3984C194.732 20.4297 194.852 21.0911 195.091 21.3828C195.331 21.6641 195.8 21.8255 196.498 21.8672V22.4297H188.607V21.8672C189.253 21.8464 189.732 21.6589 190.044 21.3047C190.253 21.0651 190.357 20.4297 190.357 19.3984V10.8672C190.357 9.83594 190.237 9.17969 189.998 8.89844C189.758 8.60677 189.294 8.4401 188.607 8.39844V7.82031H194.732Z" fill="#727272"></path>
    <path d="M203.654 1.24219V19.3984C203.654 20.4297 203.774 21.0911 204.013 21.3828C204.253 21.6641 204.722 21.8255 205.419 21.8672V22.4297H197.529V21.8672C198.175 21.8464 198.654 21.6589 198.966 21.3047C199.175 21.0651 199.279 20.4297 199.279 19.3984V4.27344C199.279 3.2526 199.159 2.60156 198.919 2.32031C198.68 2.02865 198.216 1.86198 197.529 1.82031V1.24219H203.654Z" fill="#727272"></path>
  </symbol>
  <symbol xmlns="http://www.w3.org/2000/svg" fill="none" viewBox="0 0 71 24" id="as-deatured-in-logo1">
    <path d="M18.8884 1.02961V23.4296H17.5444L2.28044 3.97361V23.4296H0.648438V1.02961H2.02444L17.2564 20.4856V1.02961H18.8884Z" fill="#727272"></path>
    <path d="M42.4549 23.7496L39.2229 20.3576C38.3056 21.4243 37.2176 22.2349 35.9589 22.7896C34.7003 23.3229 33.3029 23.5896 31.7669 23.5896C30.3589 23.5896 29.1003 23.3549 27.9909 22.8856C26.8816 22.4163 26.0176 21.7549 25.3989 20.9016C24.7803 20.0483 24.4709 19.0776 24.4709 17.9896C24.4709 16.6883 24.9083 15.5043 25.7829 14.4376C26.6576 13.3496 28.1509 12.1869 30.2629 10.9496L30.2309 10.8856C29.1216 9.73361 28.3643 8.77361 27.9589 8.00561C27.5536 7.21628 27.3509 6.37361 27.3509 5.47761C27.3509 4.09094 27.8309 2.98161 28.7909 2.14961C29.7509 1.31761 31.0416 0.901611 32.6629 0.901611C34.1776 0.901611 35.3723 1.28561 36.2469 2.05361C37.1429 2.80028 37.5909 3.83495 37.5909 5.15761C37.5909 6.26694 37.2069 7.26961 36.4389 8.16561C35.6923 9.04028 34.3696 10.0323 32.4709 11.1416L39.0949 18.1496C39.8203 16.8696 40.3536 15.3549 40.6949 13.6056L42.0069 14.0216C41.5803 16.0909 40.9403 17.8083 40.0869 19.1736L43.4149 22.6936L42.4549 23.7496ZM28.8549 5.47761C28.8549 6.18161 29.0363 6.86428 29.3989 7.52561C29.7616 8.16561 30.4763 9.05095 31.5429 10.1816C33.3136 9.15761 34.5296 8.29361 35.1909 7.58961C35.8523 6.86428 36.1829 6.06428 36.1829 5.18961C36.1829 4.25095 35.8736 3.51495 35.2549 2.98161C34.6363 2.42695 33.7723 2.14961 32.6629 2.14961C31.4683 2.14961 30.5296 2.45895 29.8469 3.07761C29.1856 3.67495 28.8549 4.47495 28.8549 5.47761ZM31.8309 22.2456C34.5616 22.2456 36.7056 21.2749 38.2629 19.3336L31.1909 11.8776C29.2283 13.0296 27.8736 14.0429 27.1269 14.9176C26.4016 15.7923 26.0389 16.7736 26.0389 17.8616C26.0389 19.1629 26.5723 20.2189 27.6389 21.0296C28.7269 21.8403 30.1243 22.2456 31.8309 22.2456Z" fill="#727272"></path>
    <path d="M68.8637 23.4296L68.8317 4.26161L59.4557 20.4536H58.6557L49.2797 4.32561V23.4296H47.6797V1.02961H49.0557L59.0717 18.3416L69.0877 1.02961H70.4317L70.4637 23.4296H68.8637Z" fill="#727272"></path>
  </symbol>
  <symbol xmlns="http://www.w3.org/2000/svg" fill="none" viewBox="0 0 150 24" id="as-deatured-in-logo2">
    <g opacity="0.6">
      <path d="M7.52755 14.1176V19.6856C7.52755 20.5389 7.61288 21.1682 7.78355 21.5736C7.97555 21.9576 8.29555 22.2136 8.74355 22.3416C9.21288 22.4696 9.94888 22.5442 10.9516 22.5656V23.2696C8.32755 23.2056 6.37555 23.1736 5.09555 23.1736C4.02888 23.1736 2.68488 23.1949 1.06355 23.2376L0.0395508 23.2696V22.6296C0.743551 22.5869 1.25555 22.5016 1.57555 22.3736C1.91688 22.2456 2.14088 22.0002 2.24755 21.6376C2.37555 21.2749 2.43955 20.6882 2.43955 19.8776V4.00556C2.43955 3.19489 2.37555 2.60823 2.24755 2.24556C2.14088 1.88289 1.91688 1.63756 1.57555 1.50956C1.25555 1.38156 0.743551 1.29623 0.0395508 1.25356V0.613562C1.12755 0.677561 2.74888 0.70956 4.90355 0.70956L8.45555 0.677561C8.88222 0.656228 9.37289 0.645561 9.92755 0.645561C12.8076 0.645561 15.0049 1.22156 16.5196 2.37356C18.0342 3.50423 18.7915 5.02956 18.7915 6.94956C18.7915 8.12289 18.4929 9.25356 17.8955 10.3416C17.2982 11.4082 16.2849 12.3042 14.8555 13.0296C13.4476 13.7549 11.5702 14.1176 9.22355 14.1176H7.52755ZM9.51155 1.25356C8.93555 1.25356 8.50888 1.32823 8.23155 1.47756C7.97555 1.62689 7.79422 1.89356 7.68755 2.27756C7.58088 2.66156 7.52755 3.23756 7.52755 4.00556V13.4776H8.90355C10.6316 13.4776 11.8262 12.9229 12.4875 11.8136C13.1489 10.7042 13.4796 9.20023 13.4796 7.30156C13.4796 5.23223 13.1702 3.70689 12.5516 2.72556C11.9542 1.74423 10.9409 1.25356 9.51155 1.25356Z" fill="#141414"></path>
      <path d="M41.1911 20.5816C41.4684 21.2856 41.7884 21.7976 42.1511 22.1176C42.5137 22.4376 42.8657 22.6082 43.2071 22.6296V23.2696C41.9271 23.2056 40.3057 23.1736 38.3431 23.1736C36.1671 23.1736 34.5457 23.2056 33.479 23.2696V22.6296C34.2897 22.5869 34.8657 22.4909 35.2071 22.3416C35.5484 22.1709 35.7191 21.8829 35.7191 21.4776C35.7191 21.0936 35.591 20.5816 35.335 19.9416L33.4151 14.6936H26.439L25.607 16.9016C25.0097 18.4376 24.711 19.6216 24.711 20.4536C24.711 21.2429 24.9457 21.7976 25.4151 22.1176C25.9057 22.4162 26.6204 22.5869 27.559 22.6296V23.2696C26.1084 23.2056 24.7857 23.1736 23.591 23.1736C22.6097 23.1736 21.7991 23.2056 21.159 23.2696V22.6296C22.2044 22.4376 23.1217 21.3176 23.911 19.2696L31.2071 0.549561C31.4417 0.570894 31.815 0.58156 32.327 0.58156C32.839 0.58156 33.2017 0.570894 33.4151 0.549561L41.1911 20.5816ZM33.1911 14.0536L30.0231 5.41356L26.695 14.0536H33.1911Z" fill="#141414"></path>
      <path d="M74.9658 1.25356C74.2405 1.29623 73.7178 1.38156 73.3978 1.50956C73.0778 1.63756 72.8538 1.88289 72.7258 2.24556C72.6191 2.60823 72.5658 3.19489 72.5658 4.00556V19.8776C72.5658 20.6882 72.6191 21.2749 72.7258 21.6376C72.8538 22.0002 73.0778 22.2456 73.3978 22.3736C73.7391 22.5016 74.2618 22.5869 74.9658 22.6296V23.2696C73.7925 23.2056 72.1178 23.1736 69.9418 23.1736C67.6591 23.1736 65.9738 23.2056 64.8858 23.2696V22.6296C65.6538 22.5869 66.2085 22.5016 66.5498 22.3736C66.9125 22.2456 67.1578 22.0002 67.2858 21.6376C67.4138 21.2749 67.4778 20.6882 67.4778 19.8776V3.14156L59.7658 23.3016H59.2538L50.6138 2.69356V18.0216C50.6138 19.2802 50.6778 20.2082 50.8058 20.8056C50.9338 21.3816 51.2111 21.8082 51.6378 22.0856C52.0645 22.3416 52.7578 22.5229 53.7178 22.6296V23.2696C52.8858 23.2056 51.7338 23.1736 50.2618 23.1736C49.0885 23.1736 48.1605 23.2056 47.4778 23.2696V22.6296C48.1818 22.5229 48.6938 22.3416 49.0138 22.0856C49.3551 21.8296 49.5791 21.4242 49.6858 20.8696C49.8138 20.3149 49.8778 19.4936 49.8778 18.4056V4.00556C49.8778 3.19489 49.8138 2.60823 49.6858 2.24556C49.5791 1.88289 49.3551 1.63756 49.0138 1.50956C48.6938 1.38156 48.1818 1.29623 47.4778 1.25356V0.613562C48.1605 0.677561 49.0885 0.70956 50.2618 0.70956C52.2245 0.70956 53.9098 0.677561 55.3178 0.613562L61.7818 16.1976L67.6698 0.70956H69.9418C72.1178 0.70956 73.7925 0.677561 74.9658 0.613562V1.25356Z" fill="#141414"></path>
      <path d="M98.6381 18.4056C98.6381 20.3682 98.7127 21.9896 98.8621 23.2696C97.4114 23.2056 94.9687 23.1736 91.5341 23.1736C86.8834 23.1736 83.4061 23.2056 81.1021 23.2696V22.6296C81.8061 22.5869 82.3181 22.5016 82.6381 22.3736C82.9794 22.2456 83.2034 22.0002 83.3101 21.6376C83.4381 21.2749 83.5021 20.6882 83.5021 19.8776V4.00556C83.5021 3.19489 83.4381 2.60823 83.3101 2.24556C83.2034 1.88289 82.9794 1.63756 82.6381 1.50956C82.3181 1.38156 81.8061 1.29623 81.1021 1.25356V0.613562C83.4061 0.677561 86.8834 0.70956 91.5341 0.70956C94.6701 0.70956 96.8994 0.677561 98.2221 0.613562C98.0727 2.38423 97.9981 3.9629 97.9981 5.34956C97.9981 6.28823 98.0301 7.01356 98.0941 7.52556H97.3581C97.0381 5.2429 96.4621 3.64289 95.6301 2.72556C94.7981 1.80823 93.6247 1.34956 92.1101 1.34956H90.798C90.1367 1.34956 89.6567 1.40289 89.3581 1.50956C89.0594 1.61623 88.8567 1.82956 88.7501 2.14956C88.6434 2.44823 88.5901 2.93889 88.5901 3.62156V11.5576H89.6141C90.7447 11.5576 91.5981 11.1416 92.1741 10.3096C92.7714 9.47756 93.1874 8.48556 93.4221 7.33356H94.1581C94.0941 8.22956 94.0621 9.23223 94.0621 10.3416V11.8776C94.0621 12.9656 94.1261 14.4802 94.2541 16.4216H93.5181C93.0701 13.6056 91.7687 12.1976 89.6141 12.1976H88.5901V20.2616C88.5901 20.9442 88.6434 21.4456 88.7501 21.7656C88.8567 22.0642 89.0594 22.2669 89.3581 22.3736C89.6567 22.4802 90.1367 22.5336 90.798 22.5336H92.3661C93.8807 22.5336 95.0967 22.0216 96.0141 20.9976C96.9527 19.9522 97.6141 18.1922 97.9981 15.7176H98.7341C98.6701 16.4216 98.6381 17.3176 98.6381 18.4056Z" fill="#141414"></path>
      <path d="M115.463 1.25356C114.695 1.29623 114.13 1.38156 113.767 1.50956C113.426 1.63756 113.191 1.88289 113.063 2.24556C112.935 2.60823 112.871 3.19489 112.871 4.00556V20.2616C112.871 20.9442 112.925 21.4456 113.031 21.7656C113.138 22.0642 113.319 22.2669 113.575 22.3736C113.853 22.4802 114.29 22.5336 114.887 22.5336H116.455C117.906 22.5336 119.154 21.8829 120.199 20.5816C121.266 19.2802 121.959 17.5522 122.279 15.3976H123.015C122.951 16.1229 122.919 17.0616 122.919 18.2136C122.919 20.2616 122.994 21.9469 123.143 23.2696C121.693 23.2056 119.25 23.1736 115.815 23.1736C111.165 23.1736 107.687 23.2056 105.383 23.2696V22.6296C106.087 22.5869 106.599 22.5016 106.919 22.3736C107.261 22.2456 107.485 22.0002 107.591 21.6376C107.719 21.2749 107.783 20.6882 107.783 19.8776V4.00556C107.783 3.19489 107.719 2.60823 107.591 2.24556C107.485 1.88289 107.261 1.63756 106.919 1.50956C106.599 1.38156 106.087 1.29623 105.383 1.25356V0.613562C106.471 0.677561 108.157 0.70956 110.439 0.70956C112.615 0.70956 114.29 0.677561 115.463 0.613562V1.25356Z" fill="#141414"></path>
      <path d="M147.41 20.5816C147.687 21.2856 148.007 21.7976 148.37 22.1176C148.732 22.4376 149.084 22.6082 149.426 22.6296V23.2696C148.146 23.2056 146.524 23.1736 144.562 23.1736C142.386 23.1736 140.764 23.2056 139.698 23.2696V22.6296C140.508 22.5869 141.084 22.4909 141.426 22.3416C141.767 22.1709 141.938 21.8829 141.938 21.4776C141.938 21.0936 141.81 20.5816 141.554 19.9416L139.634 14.6936H132.658L131.826 16.9016C131.228 18.4376 130.93 19.6216 130.93 20.4536C130.93 21.2429 131.164 21.7976 131.634 22.1176C132.124 22.4162 132.839 22.5869 133.778 22.6296V23.2696C132.327 23.2056 131.004 23.1736 129.81 23.1736C128.828 23.1736 128.018 23.2056 127.378 23.2696V22.6296C128.423 22.4376 129.34 21.3176 130.13 19.2696L137.426 0.549561C137.66 0.570894 138.034 0.58156 138.546 0.58156C139.058 0.58156 139.42 0.570894 139.634 0.549561L147.41 20.5816ZM139.41 14.0536L136.242 5.41356L132.914 14.0536H139.41Z" fill="#141414"></path>
    </g>
  </symbol>
  <symbol xmlns="http://www.w3.org/2000/svg" fill="none" viewBox="0 0 148 28" id="as-deatured-in-logo3">
    <path d="M20.6711 26.9141H18.8899L22.8049 8.19238L22.9348 7.54297C23.0214 7.08529 23.0647 6.76986 23.0647 6.59668C23.0647 6.36165 23.0028 6.16992 22.8792 6.02148C22.7555 5.86068 22.5823 5.78027 22.3596 5.78027C22.0133 5.78027 21.6236 5.99056 21.1907 6.41113C20.7577 6.83171 20.2135 7.53678 19.5579 8.52637C18.5435 10.0355 17.4364 12.1322 16.2366 14.8164C15.2965 16.9316 14.4924 18.9912 13.8245 20.9951C13.1689 22.9867 12.6308 24.9596 12.2102 26.9141H10.6702L14.9749 6.76367C15.1109 6.13281 15.179 5.63802 15.179 5.2793C15.179 5.11849 15.148 4.96387 15.0862 4.81543C15.0243 4.66699 14.9377 4.55566 14.8264 4.48145C14.7275 4.40723 14.6099 4.37012 14.4739 4.37012C13.8925 4.37012 13.1812 4.93913 12.3401 6.07715C11.4989 7.2028 10.5032 8.95931 9.35278 11.3467C8.80851 12.4229 8.2828 13.5485 7.77563 14.7236C7.26847 15.8988 6.81698 16.9935 6.42114 18.0078C6.02531 19.0221 5.58 20.2591 5.08521 21.7188C4.36776 23.8464 3.84823 25.5781 3.52661 26.9141H1.96802L2.02368 26.6543L2.82153 23.4814C3.10604 22.2692 3.35343 21.193 3.56372 20.2529C4.54093 15.8245 5.25838 12.2064 5.71606 9.39844C6.09953 7.19661 6.29126 5.6071 6.29126 4.62988C6.29126 3.91243 6.17993 3.36198 5.95728 2.97852C5.74699 2.58268 5.45011 2.38477 5.06665 2.38477C4.12655 2.38477 3.29159 3.63411 2.56177 6.13281C2.10409 7.70378 1.75155 9.39844 1.50415 11.2168L0.112549 10.3076C0.322835 8.71191 0.669189 7.27083 1.15161 5.98438C1.6464 4.69792 2.22778 3.68359 2.89575 2.94141C3.57609 2.18685 4.26261 1.80957 4.95532 1.80957C5.74699 1.80957 6.36548 2.23014 6.81079 3.07129C7.26847 3.91243 7.49731 5.06283 7.49731 6.52246C7.49731 7.74707 7.38599 9.13867 7.16333 10.6973C7.10148 11.1549 6.90356 12.3177 6.56958 14.1855L5.82739 18.2305L5.93872 17.8779C6.82935 15.4535 8.12199 12.596 9.81665 9.30566C10.8805 7.26465 11.8639 5.72461 12.7668 4.68555C13.6822 3.63411 14.511 3.1084 15.2532 3.1084C15.7232 3.1084 16.1129 3.29395 16.4221 3.66504C16.7314 4.02376 16.886 4.48763 16.886 5.05664C16.886 5.63802 16.7685 6.47917 16.5334 7.58008L14.3811 17.8594C14.5419 17.4017 14.913 16.5234 15.4944 15.2246C17.189 11.4642 18.6363 8.75521 19.8362 7.09766C21.0361 5.42773 22.1431 4.59277 23.1575 4.59277C23.6646 4.59277 24.0667 4.77214 24.3635 5.13086C24.6728 5.47721 24.8274 5.94108 24.8274 6.52246C24.8274 6.99251 24.7222 7.70378 24.512 8.65625L20.6711 26.9141Z" fill="#727272"></path>
    <path d="M29.2249 8.78613C29.5465 8.78613 29.8062 8.88509 30.0042 9.08301C30.2021 9.28092 30.301 9.54069 30.301 9.8623C30.301 10.1715 30.1959 10.4313 29.9856 10.6416C29.7753 10.8519 29.5217 10.957 29.2249 10.957C28.9403 10.957 28.6868 10.8457 28.4641 10.623C28.2415 10.4004 28.1301 10.1468 28.1301 9.8623C28.1301 9.56543 28.2353 9.31185 28.4456 9.10156C28.6558 8.89128 28.9156 8.78613 29.2249 8.78613ZM28.6868 16.0596L27.054 22.1641C26.7818 23.166 26.6458 23.9701 26.6458 24.5762C26.6458 24.972 26.7138 25.2936 26.8499 25.541C26.9859 25.7884 27.1653 25.9121 27.3879 25.9121C27.7714 25.9121 28.3837 25.4544 29.2249 24.5391L29.5217 24.7988L29.3362 25.0029C28.6311 25.8317 28.1116 26.3945 27.7776 26.6914C27.4436 26.9759 27.1344 27.1182 26.8499 27.1182C26.4664 27.1182 26.1386 26.9264 25.8665 26.543C25.6067 26.1471 25.4768 25.6585 25.4768 25.0771C25.4768 24.7061 25.551 24.1185 25.6995 23.3145L26.8684 16.8203L28.6868 16.0596Z" fill="#727272"></path>
    <path d="M38.261 24.1309C37.5064 25.1947 36.7704 25.974 36.053 26.4688C35.3479 26.9512 34.5624 27.1924 33.6965 27.1924C32.7441 27.1924 31.9648 26.8584 31.3586 26.1904C30.7649 25.5225 30.468 24.6566 30.468 23.5928C30.468 22.4795 30.7587 21.3477 31.3401 20.1973C31.9215 19.0469 32.6637 18.0944 33.5667 17.3398C34.482 16.5853 35.3603 16.208 36.2014 16.208C36.7704 16.208 37.2281 16.3688 37.5745 16.6904C37.9208 16.9997 38.094 17.4202 38.094 17.9521C38.094 18.4346 37.9084 18.8984 37.5374 19.3438C37.1786 19.7767 36.789 19.9932 36.3684 19.9932C36.1829 19.9932 36.0159 19.9189 35.8674 19.7705C36.6715 19.4118 37.0735 18.7438 37.0735 17.7666C37.0735 17.4202 36.9807 17.1543 36.7952 16.9688C36.622 16.7708 36.387 16.6719 36.0901 16.6719C35.6324 16.6719 35.1685 16.8574 34.6985 17.2285C34.2408 17.5996 33.8079 18.1191 33.3997 18.7871C32.9915 19.4427 32.6698 20.1478 32.4348 20.9023C32.2122 21.6445 32.1008 22.3991 32.1008 23.166C32.1008 24.0814 32.3173 24.8236 32.7502 25.3926C33.1832 25.9616 33.7522 26.2461 34.4573 26.2461C35.0634 26.2461 35.651 26.0544 36.22 25.6709C36.789 25.2874 37.3827 24.6999 38.0012 23.9082L38.261 24.1309Z" fill="#727272"></path>
    <path d="M39.4856 27.0996L44.4211 1.7168L46.3694 0.770508L41.2297 23.3701C41.2792 23.2835 41.304 23.2279 41.304 23.2031L41.7307 22.2383C42.4605 20.5807 43.3759 19.1458 44.4768 17.9336C45.5159 16.8079 46.4745 16.2451 47.3528 16.2451C47.8228 16.2451 48.2001 16.3997 48.4846 16.709C48.7691 17.0059 48.9114 17.4079 48.9114 17.915C48.9114 18.1995 48.8433 18.6016 48.7073 19.1211L48.5217 19.9004L47.9465 22.1641L47.7795 22.8877C47.594 23.6299 47.5012 24.1989 47.5012 24.5947C47.5012 24.9906 47.5693 25.3122 47.7053 25.5596C47.8414 25.7946 48.0208 25.9121 48.2434 25.9121C48.6269 25.9121 49.2392 25.4544 50.0803 24.5391L50.3586 24.7988L50.1917 25.0029C49.4866 25.8317 48.9609 26.3945 48.6145 26.6914C48.2805 26.9759 47.9775 27.1182 47.7053 27.1182C47.3219 27.1182 46.9941 26.9141 46.7219 26.5059C46.4498 26.0977 46.3137 25.6214 46.3137 25.0771C46.3137 24.7432 46.3941 24.1556 46.5549 23.3145L47.26 19.3809C47.3713 18.7995 47.427 18.3665 47.427 18.082C47.427 17.8223 47.359 17.6243 47.2229 17.4883C47.0868 17.3522 46.9013 17.2842 46.6663 17.2842C46.2086 17.2842 45.6829 17.5563 45.0891 18.1006C44.4954 18.6325 43.8954 19.3747 43.2893 20.3271C42.6956 21.2796 42.176 22.3001 41.7307 23.3887C41.2854 24.4648 40.9514 25.5719 40.7288 26.71L39.4856 27.0996Z" fill="#727272"></path>
    <path d="M58.9866 24.0381L59.3206 24.3164C58.5536 25.3307 57.8053 26.0667 57.0754 26.5244C56.3456 26.9697 55.5601 27.1924 54.719 27.1924C53.717 27.1924 52.913 26.8584 52.3069 26.1904C51.7008 25.5225 51.3977 24.638 51.3977 23.5371C51.3977 22.4238 51.6884 21.2982 52.2698 20.1602C52.8635 19.0098 53.5995 18.0635 54.4778 17.3213C55.3684 16.5667 56.2467 16.1895 57.1125 16.1895C57.6197 16.1895 58.0341 16.3379 58.3557 16.6348C58.6897 16.9316 58.8567 17.3151 58.8567 17.7852C58.8567 18.7376 58.3372 19.6901 57.2981 20.6426C56.259 21.5951 54.8427 22.4053 53.0491 23.0732C53.0367 23.1722 53.0305 23.2835 53.0305 23.4072C53.0305 24.2607 53.2655 24.9596 53.7356 25.5039C54.2056 26.0358 54.8118 26.3018 55.554 26.3018C56.1353 26.3018 56.6982 26.1224 57.2424 25.7637C57.7867 25.3926 58.3681 24.8174 58.9866 24.0381ZM53.0491 22.6279C54.385 22.0342 55.4117 21.3724 56.1292 20.6426C56.6116 20.1478 57.0012 19.6159 57.2981 19.0469C57.595 18.4779 57.7434 17.9645 57.7434 17.5068C57.7434 16.9255 57.4775 16.6348 56.9456 16.6348C56.1415 16.6348 55.3251 17.2718 54.4963 18.5459C53.6799 19.8076 53.1975 21.1683 53.0491 22.6279Z" fill="#727272"></path>
    <path d="M67.5588 0.770508L62.679 22.1641L62.512 22.8877C62.3512 23.568 62.2708 24.1432 62.2708 24.6133C62.2708 24.9967 62.3388 25.3122 62.4749 25.5596C62.6233 25.7946 62.8027 25.9121 63.0129 25.9121C63.3964 25.9121 64.0087 25.4544 64.8499 24.5391L65.1467 24.7988L64.9612 25.0029C64.2561 25.8317 63.7366 26.3945 63.4026 26.6914C63.0686 26.9759 62.7594 27.1182 62.4749 27.1182C62.1038 27.1182 61.776 26.9141 61.4915 26.5059C61.2193 26.0853 61.0833 25.609 61.0833 25.0771C61.0833 24.7061 61.1637 24.1185 61.3245 23.3145L65.6106 1.7168L67.5588 0.770508Z" fill="#727272"></path>
    <path d="M73.6819 24.0381L74.0159 24.3164C73.2489 25.3307 72.5006 26.0667 71.7708 26.5244C71.0409 26.9697 70.2555 27.1924 69.4143 27.1924C68.4124 27.1924 67.6083 26.8584 67.0022 26.1904C66.3961 25.5225 66.093 24.638 66.093 23.5371C66.093 22.4238 66.3837 21.2982 66.9651 20.1602C67.5588 19.0098 68.2948 18.0635 69.1731 17.3213C70.0637 16.5667 70.942 16.1895 71.8079 16.1895C72.315 16.1895 72.7294 16.3379 73.051 16.6348C73.385 16.9316 73.552 17.3151 73.552 17.7852C73.552 18.7376 73.0325 19.6901 71.9934 20.6426C70.9543 21.5951 69.538 22.4053 67.7444 23.0732C67.732 23.1722 67.7258 23.2835 67.7258 23.4072C67.7258 24.2607 67.9609 24.9596 68.4309 25.5039C68.901 26.0358 69.5071 26.3018 70.2493 26.3018C70.8306 26.3018 71.3935 26.1224 71.9377 25.7637C72.482 25.3926 73.0634 24.8174 73.6819 24.0381ZM67.7444 22.6279C69.0803 22.0342 70.107 21.3724 70.8245 20.6426C71.3069 20.1478 71.6965 19.6159 71.9934 19.0469C72.2903 18.4779 72.4387 17.9645 72.4387 17.5068C72.4387 16.9255 72.1728 16.6348 71.6409 16.6348C70.8368 16.6348 70.0204 17.2718 69.1917 18.5459C68.3752 19.8076 67.8928 21.1683 67.7444 22.6279Z" fill="#727272"></path>
    <path d="M89.5461 3.81348L91.4573 2.92285L91.4016 3.40527C91.3645 3.77637 91.3336 4.08561 91.3088 4.33301C91.2841 4.56803 91.2594 4.75358 91.2346 4.88965L91.012 6.37402C91.012 6.38639 90.9872 6.5472 90.9377 6.85645C91.9644 5.82975 92.9849 4.92057 93.9993 4.12891C95.026 3.33724 95.9537 2.74967 96.7825 2.36621C97.6112 1.98275 98.372 1.79102 99.0647 1.79102C99.7945 1.79102 100.37 2.03841 100.79 2.5332C101.223 3.02799 101.44 3.70833 101.44 4.57422C101.44 5.55143 101.106 6.65234 100.438 7.87695C99.7821 9.08919 98.842 10.3385 97.6174 11.625C96.2939 13.0228 95.0878 14.0866 93.9993 14.8164C94.3951 14.7917 94.6178 14.7793 94.6672 14.7793C96.0032 14.7793 97.0979 15.1751 97.9514 15.9668C98.8049 16.7585 99.2317 17.7852 99.2317 19.0469C99.2317 20.3086 98.8668 21.5518 98.137 22.7764C97.4071 24.001 96.399 25.0524 95.1125 25.9307C93.69 26.9079 92.0325 27.3965 90.1399 27.3965C88.5566 27.3965 87.4371 27.0872 86.7815 26.4688L87.6907 25.2812C88.0865 25.7018 88.5813 26.0482 89.175 26.3203C89.7688 26.5801 90.3811 26.71 91.012 26.71C92.1252 26.71 93.1581 26.376 94.1106 25.708C95.0754 25.0277 95.8424 24.1309 96.4114 23.0176C96.9928 21.8919 97.2834 20.6921 97.2834 19.418C97.2834 18.6139 97.135 17.9274 96.8381 17.3584C96.5536 16.777 96.1454 16.3317 95.6135 16.0225C95.0816 15.7008 94.4569 15.54 93.7395 15.54C93.3931 15.54 92.9788 15.6019 92.4963 15.7256L92.6819 14.8164C93.7828 14.1855 94.859 13.3753 95.9104 12.3857C96.9618 11.3838 97.8463 10.3385 98.5637 9.25C99.5162 7.8151 99.9924 6.50391 99.9924 5.31641C99.9924 4.59896 99.8007 4.02376 99.4172 3.59082C99.0461 3.15788 98.5514 2.94141 97.9329 2.94141C96.8196 2.94141 95.3847 3.66504 93.6282 5.1123C92.4283 6.11426 91.4758 7.06055 90.7708 7.95117L90.7151 8.28516C90.5172 9.63346 90.2327 11.0993 89.8616 12.6826C89.5028 14.2536 89.0637 15.9111 88.5442 17.6553C88.037 19.387 87.5299 20.9642 87.0227 22.3867C86.429 24.0443 85.8538 25.2751 85.2971 26.0791C84.7405 26.8708 84.19 27.2666 83.6458 27.2666C82.8046 27.2666 82.384 26.5615 82.384 25.1514C82.384 24.2113 82.5572 23.0052 82.9036 21.5332C83.2623 20.0488 83.7076 18.6325 84.2395 17.2842C85.5136 14.0309 87.0846 11.3281 88.9524 9.17578C89.0637 8.44596 89.175 7.58008 89.2864 6.57812C89.4101 5.36589 89.4967 4.44434 89.5461 3.81348ZM88.7668 10.3076C87.8267 11.458 86.9237 12.862 86.0579 14.5195C85.2043 16.1771 84.5116 17.8656 83.9797 19.585C83.6581 20.624 83.3922 21.6507 83.1819 22.665C82.984 23.6794 82.885 24.4587 82.885 25.0029C82.885 25.7822 83.0767 26.1719 83.4602 26.1719C83.7323 26.1595 83.9921 25.9678 84.2395 25.5967C84.4869 25.2132 84.7961 24.5576 85.1672 23.6299C85.3652 23.1351 85.594 22.5104 85.8538 21.7559C86.1135 21.0013 86.3486 20.2777 86.5588 19.585C86.7815 18.8799 87.0165 18.0573 87.2639 17.1172C87.5237 16.1771 87.7154 15.4473 87.8391 14.9277C88.2844 13.0846 88.5937 11.5446 88.7668 10.3076Z" fill="#727272"></path>
    <path d="M100.865 23.3516C100.865 22.2383 101.161 21.1312 101.755 20.0303C102.361 18.917 103.141 18.014 104.093 17.3213C105.045 16.6286 106.017 16.2822 107.006 16.2822C108.045 16.2822 108.88 16.6286 109.511 17.3213C110.154 18.0016 110.476 18.8861 110.476 19.9746C110.476 21.1621 110.179 22.3125 109.585 23.4258C109.004 24.5391 108.231 25.4544 107.266 26.1719C106.313 26.877 105.349 27.2295 104.371 27.2295C103.32 27.2295 102.473 26.877 101.829 26.1719C101.186 25.4544 100.865 24.5143 100.865 23.3516ZM108.806 19.2695C108.806 18.5273 108.62 17.915 108.249 17.4326C107.891 16.9502 107.427 16.709 106.858 16.709C106.338 16.709 105.837 16.876 105.355 17.21C104.885 17.5439 104.452 18.0326 104.056 18.6758C103.611 19.418 103.24 20.2839 102.943 21.2734C102.658 22.263 102.516 23.1413 102.516 23.9082C102.516 24.8236 102.695 25.5286 103.054 26.0234C103.413 26.5182 103.926 26.7656 104.594 26.7656C105.67 26.7656 106.616 26.0173 107.433 24.5205C107.853 23.7536 108.187 22.8939 108.435 21.9414C108.682 20.9889 108.806 20.0983 108.806 19.2695Z" fill="#727272"></path>
    <path d="M112.498 16.8203L114.168 16.0596V16.3936V16.542C114.168 17.4202 114.193 18.2367 114.242 18.9912C114.292 19.7458 114.385 20.8219 114.521 22.2197C114.694 23.8525 114.824 24.8483 114.91 25.207C114.997 25.5658 115.145 25.7451 115.356 25.7451C115.628 25.7451 116.073 25.3122 116.692 24.4463C117.31 23.568 117.916 22.5104 118.51 21.2734L117.935 16.8203L119.623 16.0596L119.642 16.5234C119.741 19.1706 119.846 21.0693 119.957 22.2197C119.994 22.5166 120.031 22.832 120.069 23.166C120.106 23.4876 120.13 23.7412 120.143 23.9268C120.168 24.1123 120.198 24.3288 120.236 24.5762C120.273 24.8112 120.297 24.9658 120.31 25.04C120.409 25.4482 120.57 25.6523 120.792 25.6523C121.238 25.6523 122.004 24.7679 123.093 22.999C124.12 21.3662 124.633 19.987 124.633 18.8613C124.633 17.9583 124.336 17.3027 123.742 16.8945L125.153 15.5957C125.586 16.0905 125.802 16.7337 125.802 17.5254C125.802 18.3913 125.561 19.3747 125.078 20.4756C124.596 21.5765 123.878 22.8073 122.926 24.168C122.332 24.9967 121.788 25.6833 121.293 26.2275C120.749 26.846 120.304 27.1553 119.957 27.1553C119.685 27.1553 119.481 27.0316 119.345 26.7842C119.209 26.5244 119.104 26.0915 119.03 25.4854L118.621 22.1641C118.077 23.265 117.452 24.2917 116.747 25.2441C115.82 26.5182 115.077 27.1553 114.521 27.1553C114.261 27.1553 114.069 27.0439 113.946 26.8213C113.822 26.5863 113.711 26.1595 113.612 25.541L112.498 16.8203Z" fill="#727272"></path>
    <path d="M134.393 24.0381L134.727 24.3164C133.96 25.3307 133.212 26.0667 132.482 26.5244C131.752 26.9697 130.966 27.1924 130.125 27.1924C129.123 27.1924 128.319 26.8584 127.713 26.1904C127.107 25.5225 126.804 24.638 126.804 23.5371C126.804 22.4238 127.095 21.2982 127.676 20.1602C128.27 19.0098 129.006 18.0635 129.884 17.3213C130.775 16.5667 131.653 16.1895 132.519 16.1895C133.026 16.1895 133.44 16.3379 133.762 16.6348C134.096 16.9316 134.263 17.3151 134.263 17.7852C134.263 18.7376 133.743 19.6901 132.704 20.6426C131.665 21.5951 130.249 22.4053 128.455 23.0732C128.443 23.1722 128.437 23.2835 128.437 23.4072C128.437 24.2607 128.672 24.9596 129.142 25.5039C129.612 26.0358 130.218 26.3018 130.96 26.3018C131.542 26.3018 132.104 26.1224 132.649 25.7637C133.193 25.3926 133.774 24.8174 134.393 24.0381ZM128.455 22.6279C129.791 22.0342 130.818 21.3724 131.535 20.6426C132.018 20.1478 132.407 19.6159 132.704 19.0469C133.001 18.4779 133.15 17.9645 133.15 17.5068C133.15 16.9255 132.884 16.6348 132.352 16.6348C131.548 16.6348 130.731 17.2718 129.903 18.5459C129.086 19.8076 128.604 21.1683 128.455 22.6279Z" fill="#727272"></path>
    <path d="M136.193 27.0996L138.159 16.8203L139.922 16.0596L138.326 22.8691C139.353 20.7044 140.374 19.0592 141.388 17.9336C142.402 16.8079 143.373 16.2451 144.301 16.2451C144.759 16.2451 145.13 16.3997 145.414 16.709C145.699 17.0059 145.841 17.4079 145.841 17.915C145.841 18.1995 145.773 18.6016 145.637 19.1211L145.451 19.9004L144.895 22.1641L144.709 22.8877C144.524 23.6299 144.431 24.1989 144.431 24.5947C144.431 24.9906 144.499 25.3122 144.635 25.5596C144.771 25.7946 144.95 25.9121 145.173 25.9121C145.557 25.9121 146.169 25.4544 147.01 24.5391L147.307 24.7988L147.121 25.0029C146.416 25.8317 145.897 26.3945 145.563 26.6914C145.229 26.9759 144.92 27.1182 144.635 27.1182C144.252 27.1182 143.924 26.9264 143.652 26.543C143.392 26.1471 143.262 25.6585 143.262 25.0771C143.262 24.6813 143.336 24.0938 143.485 23.3145L144.208 19.3809C144.307 18.7624 144.357 18.3294 144.357 18.082C144.357 17.8223 144.289 17.6243 144.153 17.4883C144.017 17.3522 143.831 17.2842 143.596 17.2842C142.742 17.2842 141.691 18.1995 140.442 20.0303C139.836 20.9085 139.335 21.7806 138.939 22.6465C138.543 23.5 138.098 24.6875 137.603 26.209L137.436 26.71L136.193 27.0996Z" fill="#727272"></path>
  </symbol>
</svg>